<svg xmlns="http://www.w3.org/2000/svg" xmlns:xlink="http://www.w3.org/1999/xlink" width="500" zoomAndPan="magnify" viewBox="0 0 375 374.999991" height="500" preserveAspectRatio="xMidYMid meet" version="1.0"><defs><g/><clipPath id="cf7443d18d"><path d="M 76.925781 150.507812 L 127.925781 150.507812 L 127.925781 209 L 76.925781 209 Z M 76.925781 150.507812 " clip-rule="nonzero"/></clipPath></defs><rect x="-37.5" width="450" fill="#ffffff" y="-37.499999" height="449.999989" fill-opacity="1"/><rect x="-37.5" width="450" fill="#ffffff" y="-37.499999" height="449.999989" fill-opacity="1"/><rect x="-37.5" width="450" fill="#ffffff" y="-37.499999" height="449.999989" fill-opacity="1"/><g clip-path="url(#cf7443d18d)"><path fill="#1e1e1e" d="M 94.414062 167.914062 L 94.414062 164.902344 C 94.414062 160.449219 98.050781 156.808594 102.535156 156.808594 C 107.019531 156.808594 110.65625 160.433594 110.65625 164.902344 L 116.816406 164.902344 C 116.816406 157.054688 110.410156 150.664062 102.535156 150.664062 C 94.660156 150.664062 88.25 157.054688 88.25 164.902344 L 88.25 167.914062 L 76.988281 167.914062 L 76.988281 194.152344 C 76.988281 202.171875 83.535156 208.699219 91.578125 208.699219 L 128.050781 208.699219 L 128.050781 167.914062 Z M 120.363281 201.019531 L 91.59375 201.019531 C 87.789062 201.019531 84.707031 197.929688 84.707031 194.152344 L 84.707031 175.59375 L 120.378906 175.59375 L 120.378906 201.019531 Z M 120.363281 201.019531 " fill-opacity="1" fill-rule="nonzero"/></g><path fill="#3fa9f5" d="M 102.535156 192.632812 C 107.234375 192.632812 111.5625 189.695312 113.273438 185.335938 L 108.976562 183.644531 C 107.941406 186.253906 105.355469 188.023438 102.535156 188.023438 C 99.699219 188.023438 97.109375 186.253906 96.078125 183.644531 L 91.78125 185.335938 C 93.507812 189.695312 97.820312 192.632812 102.535156 192.632812 Z M 102.535156 192.632812 " fill-opacity="1" fill-rule="nonzero"/><g fill="#1e1e1e" fill-opacity="1"><g transform="translate(138.668213, 201.050274)"><g><path d="M 11.394531 0.511719 C 16.691406 0.511719 21.074219 -2.15625 21.074219 -7.671875 C 21.074219 -13.40625 16.179688 -14.609375 12.308594 -15.597656 C 9.570312 -16.253906 7.378906 -16.800781 7.378906 -18.589844 C 7.378906 -20.269531 9.167969 -21.039062 10.957031 -21.039062 C 13.039062 -21.039062 14.867188 -20.015625 14.867188 -17.789062 L 20.308594 -17.789062 C 20.308594 -22.902344 16.984375 -26.042969 11.105469 -26.042969 C 5.441406 -26.042969 1.828125 -23.265625 1.828125 -18.371094 C 1.828125 -12.855469 6.5 -11.722656 10.375 -10.773438 C 13.148438 -10.152344 15.488281 -9.605469 15.488281 -7.597656 C 15.488281 -5.699219 13.441406 -4.601562 11.359375 -4.601562 C 9.09375 -4.601562 7.050781 -5.808594 7.050781 -8.253906 L 1.460938 -8.253906 C 1.460938 -2.777344 5.515625 0.511719 11.394531 0.511719 Z M 11.394531 0.511719 "/></g></g></g><g fill="#1e1e1e" fill-opacity="1"><g transform="translate(161.271369, 201.050274)"><g><path d="M 13.84375 -20.160156 C 11.46875 -20.160156 9.386719 -19.285156 7.890625 -17.859375 L 7.890625 -26.808594 L 2.558594 -26.808594 L 2.558594 0 L 7.890625 0 L 7.890625 -10.335938 C 7.890625 -13.550781 9.644531 -15.488281 12.308594 -15.488281 C 14.683594 -15.488281 15.742188 -14.027344 15.742188 -11.066406 L 15.742188 0 L 21.074219 0 L 21.074219 -11.980469 C 21.074219 -16.984375 18.300781 -20.160156 13.84375 -20.160156 Z M 13.84375 -20.160156 "/></g></g></g><g fill="#1e1e1e" fill-opacity="1"><g transform="translate(184.677865, 201.050274)"><g><path d="M 11.90625 0.585938 C 18.007812 0.585938 22.574219 -3.90625 22.574219 -9.863281 C 22.574219 -15.816406 18.007812 -20.269531 11.90625 -20.269531 C 5.808594 -20.269531 1.242188 -15.816406 1.242188 -9.863281 C 1.242188 -3.90625 5.808594 0.585938 11.90625 0.585938 Z M 11.90625 -4.457031 C 8.839844 -4.457031 6.648438 -6.648438 6.648438 -9.863281 C 6.648438 -13.039062 8.839844 -15.265625 11.90625 -15.265625 C 14.976562 -15.265625 17.167969 -13.039062 17.167969 -9.863281 C 17.167969 -6.648438 14.976562 -4.457031 11.90625 -4.457031 Z M 11.90625 -4.457031 "/></g></g></g><g fill="#1e1e1e" fill-opacity="1"><g transform="translate(208.522545, 201.050274)"><g><path d="M 13.296875 -20.269531 C 10.847656 -20.269531 8.65625 -19.394531 6.976562 -17.898438 L 6.0625 -19.722656 L 2.558594 -19.722656 L 2.558594 7.121094 L 7.890625 7.121094 L 7.890625 -1.058594 C 9.386719 0 11.25 0.621094 13.296875 0.621094 C 19.25 0.621094 23.632812 -3.871094 23.632812 -9.863281 C 23.632812 -15.816406 19.25 -20.269531 13.296875 -20.269531 Z M 12.855469 -4.457031 C 9.753906 -4.457031 7.488281 -6.757812 7.488281 -9.863281 C 7.488281 -12.929688 9.753906 -15.265625 12.855469 -15.265625 C 15.960938 -15.265625 18.226562 -12.929688 18.226562 -9.863281 C 18.226562 -6.757812 15.960938 -4.457031 12.855469 -4.457031 Z M 12.855469 -4.457031 "/></g></g></g><g fill="#1e1e1e" fill-opacity="1"><g transform="translate(233.42618, 201.050274)"><g><path d="M 18.300781 -13.476562 C 20.089844 -14.71875 21.183594 -16.765625 21.183594 -18.957031 C 21.183594 -22.71875 17.898438 -25.53125 13.476562 -25.53125 L 2.921875 -25.53125 L 2.921875 0.0351562 L 13.769531 0.0351562 C 18.226562 0.0351562 21.84375 -3.25 21.84375 -7.339844 C 21.84375 -10.082031 20.527344 -12.273438 18.300781 -13.476562 Z M 15.816406 -18.117188 C 15.816406 -16.507812 14.683594 -15.378906 12.964844 -15.378906 L 8.328125 -15.378906 L 8.328125 -20.820312 L 12.964844 -20.820312 C 14.683594 -20.820312 15.816406 -19.722656 15.816406 -18.117188 Z M 13.257812 -5.039062 L 8.328125 -5.039062 L 8.328125 -10.773438 L 13.257812 -10.773438 C 15.085938 -10.773438 16.289062 -9.570312 16.289062 -7.925781 C 16.289062 -6.246094 15.085938 -5.039062 13.257812 -5.039062 Z M 13.257812 -5.039062 "/></g></g></g><g fill="#1e1e1e" fill-opacity="1"><g transform="translate(256.869194, 201.050274)"><g><path d="M 18.628906 -19.722656 L 18.078125 -17.859375 C 16.363281 -19.359375 14.136719 -20.269531 11.578125 -20.269531 C 5.660156 -20.269531 1.242188 -15.816406 1.242188 -9.863281 C 1.242188 -3.90625 5.660156 0.585938 11.578125 0.585938 C 14.097656 0.585938 16.289062 -0.292969 17.96875 -1.789062 L 18.445312 0 L 22.609375 0 L 22.609375 -19.722656 Z M 12.015625 -4.457031 C 8.910156 -4.457031 6.648438 -6.792969 6.648438 -9.863281 C 6.648438 -12.964844 8.910156 -15.265625 12.015625 -15.265625 C 15.121094 -15.265625 17.386719 -12.964844 17.386719 -9.863281 C 17.386719 -6.757812 15.121094 -4.457031 12.015625 -4.457031 Z M 12.015625 -4.457031 "/></g></g></g><g fill="#1e1e1e" fill-opacity="1"><g transform="translate(282.064952, 201.050274)"><g><path d="M 18.480469 -19.722656 L 17.605469 -17.75 C 15.886719 -19.320312 13.625 -20.269531 11.066406 -20.269531 C 5.550781 -20.269531 1.242188 -15.886719 1.242188 -10.375 C 1.242188 -4.820312 5.550781 -0.476562 11.066406 -0.476562 C 13.183594 -0.476562 15.121094 -1.132812 16.691406 -2.226562 L 16.691406 -1.496094 C 16.691406 1.386719 14.464844 3.140625 11.761719 3.140625 C 9.789062 3.140625 7.707031 2.226562 7.085938 0.4375 L 1.789062 0.4375 C 2.703125 4.929688 6.5 7.671875 11.835938 7.671875 C 18.078125 7.671875 21.914062 3.90625 21.914062 -2.265625 L 21.914062 -19.6875 Z M 11.6875 -5.257812 C 8.765625 -5.257812 6.648438 -7.414062 6.648438 -10.335938 C 6.648438 -13.296875 8.765625 -15.449219 11.6875 -15.449219 C 14.609375 -15.449219 16.726562 -13.296875 16.726562 -10.335938 C 16.726562 -7.414062 14.609375 -5.257812 11.6875 -5.257812 Z M 11.6875 -5.257812 "/></g></g></g></svg>